Coordinates
version=1
nRows=19
nColumns=24
inDegrees=yes

Units are S.I. units (second, meters, Newtons, ...)
Angles are in degrees.

endheader
time	pelvis_tilt	pelvis_list	pelvis_rotation	pelvis_tx	pelvis_ty	pelvis_tz	hip_flexion_r	hip_adduction_r	hip_rotation_r	knee_angle_r	ankle_angle_r	subtalar_angle_r	mtp_angle_r	hip_flexion_l	hip_adduction_l	hip_rotation_l	knee_angle_l	ankle_angle_l	subtalar_angle_l	mtp_angle_l	lumbar_extension	lumbar_bending	lumbar_rotation
      0.47900000	      1.08025346	      3.51184142	     -2.29598824	     -0.88712981	      0.98675655	      0.28512367	     20.12956284	     -3.25737753	     -3.52047551	      5.38541767	     -3.82911049	     -7.96601394	      8.33192470	    -21.58722029	      7.03570108	      8.38431833	      2.80149243	      9.85047400	    -12.11086699	      0.35113876	    -12.72920796	      4.71847317	     -9.34063163
      0.48316667	      1.03317205	      3.40777092	     -2.24673840	     -0.88155215	      0.98586112	      0.28551196	     20.12537779	     -3.12291635	     -3.18182885	      5.37308127	     -4.16168450	     -8.17824382	      8.33363912	    -21.69755381	      6.90401924	      8.34361414	      2.39179824	     10.14852646	    -11.91170130	      0.37144034	    -12.67129981	      4.88817862	     -9.37023279
      0.48733333	      0.99943421	      3.29369485	     -2.22636451	     -0.87599425	      0.98502240	      0.28596409	     20.12216738	     -2.97124624	     -2.75295534	      5.26473160	     -4.52502734	     -8.49095235	      8.34199621	    -21.78669884	      6.77460636	      8.19708123	      1.91125724	     10.48797125	    -11.57748322	      0.40693547	    -12.65182749	      5.04279830	     -9.38340694
      0.49150000	      0.95461278	      3.16183218	     -2.20104888	     -0.87036352	      0.98423982	      0.28639985	     20.13788287	     -2.80371670	     -2.35540162	      5.06420272	     -4.93955205	     -8.81584033	      8.35586261	    -21.84559851	      6.62822554	      8.03283726	      1.39013691	     10.81779664	    -11.23885147	      0.46248578	    -12.60012427	      5.23194637	     -9.37899049
      0.49566667	      0.90666410	      2.99793783	     -2.17344046	     -0.86471352	      0.98350970	      0.28685634	     20.15961604	     -2.60266743	     -1.95119303	      4.79247464	     -5.40283284	     -9.18846579	      8.37079283	    -21.89434296	      6.44624875	      7.89809785	      0.85367710	     11.12334119	    -10.93619940	      0.52705821	    -12.55283289	      5.45688303	     -9.35821816
      0.49983333	      0.86424891	      2.81471236	     -2.15156241	     -0.85902998	      0.98284004	      0.28733617	     20.17467683	     -2.37900648	     -1.52574753	      4.46534149	     -5.92592071	     -9.64925514	      8.38930607	    -21.92522523	      6.24815131	      7.71966904	      0.26202181	     11.43894361	    -10.58708830	      0.60991505	    -12.50554175	      5.70542509	     -9.33412571
      0.50400000	      0.80734743	      2.60553477	     -2.13627614	     -0.85328034	      0.98220309	      0.28784436	     20.21241971	     -2.12345261	     -1.11576144	      4.06821428	     -6.48741068	    -10.13299949	      8.40896644	    -21.92911697	      6.02596761	      7.51329682	     -0.36269415	     11.74213831	    -10.23639528	      0.71107644	    -12.44343278	      5.97953814	     -9.29041516
      0.50816667	      0.75609047	      2.38327005	     -2.12437814	     -0.84752431	      0.98162756	      0.28836876	     20.25889486	     -1.85132882	     -0.72431625	      3.59859519	     -7.07413463	    -10.64412532	      8.42756020	    -21.92173001	      5.79262801	      7.30869246	     -1.01949773	     12.01916302	     -9.90450520	      0.82622297	    -12.38390651	      6.27171436	     -9.24202362
      0.51233333	      0.70874550	      2.13679543	     -2.12337519	     -0.84172063	      0.98110600	      0.28892522	     20.30833060	     -1.54834372	     -0.34684819	      3.07503654	     -7.68997280	    -11.18242398	      8.44307786	    -21.90610778	      5.53833088	      7.07393465	     -1.70109028	     12.27808552	     -9.56327481	      0.96092815	    -12.32824546	      6.58895989	     -9.17204025
      0.51650000	      0.63248144	      1.88453059	     -2.12329048	     -0.83589459	      0.98060035	      0.28950841	     20.40377634	     -1.23375022	      0.00877827	      2.48832941	     -8.30515415	    -11.73915086	      8.45486537	    -21.83987172	      5.27865219	      6.83767428	     -2.42696843	     12.50545886	     -9.24483381	      1.11301482	    -12.24223662	      6.90964177	     -9.10181920
      0.52066667	      0.57970851	      1.60782673	     -2.12989888	     -0.83003727	      0.98016309	      0.29012602	     20.47925585	     -0.88946872	      0.33591197	      1.86214843	     -8.92783927	    -12.32245305	      8.46236120	    -21.78295979	      4.99600148	      6.55667522	     -3.19495131	     12.72510493	     -8.89534638	      1.29525357	    -12.17861823	      7.25967592	     -9.02294017
      0.52483333	      0.50485390	      1.32270343	     -2.14613008	     -0.82414605	      0.97974460	      0.29076981	     20.59610438	     -0.53061039	      0.63895335	      1.17600096	     -9.52195641	    -12.89224535	      8.46383982	    -21.68830247	      4.70812820	      6.27826195	     -3.98625395	     12.88942611	     -8.58675164	      1.50296459	    -12.09480811	      7.61739052	     -8.92470498
      0.52900000	      0.47905514	      1.00745871	     -2.17128624	     -0.81825357	      0.97942699	      0.29145427	     20.66854425	     -0.13619305	      0.91521763	      0.44821542	    -10.04391430	    -13.45825177	      8.46209607	    -21.62684413	      4.39115431	      5.93444471	     -4.82233952	     13.09722720	     -8.18543156	      1.89869495	    -12.07423261	      8.01557947	     -8.83301794
      0.53316667	      0.35375320	      0.71908537	     -2.19405698	     -0.81231692	      0.97903714	      0.29214371	     20.87059187	      0.23537098	      1.14553310	     -0.33850423	    -10.58490751	    -13.99213402	      8.44841809	    -21.45895747	      4.10306060	      5.71662661	     -5.65075119	     13.10263382	     -8.05315140	      2.12113287	    -11.91940753	      8.36977771	     -8.71249389
      0.53733333	      0.27592839	      0.39577854	     -2.22933938	     -0.80635263	      0.97874505	      0.29288840	     21.01711202	      0.64952744	      1.37308838	     -1.13777297	    -11.06708414	    -14.57531797	      8.42546414	    -21.31968500	      3.77977500	      5.39090659	     -6.52919575	     13.15360270	     -7.78477119	      2.41183805	    -11.82516587	      8.76766091	     -8.59519191
      0.54150000	      0.20843886	      0.06408719	     -2.25925935	     -0.80038753	      0.97851134	      0.29364798	     21.16954645	      1.07189237	      1.54461456	     -1.99136425	    -11.44124204	    -15.09891969	      8.38780854	    -21.17160210	      3.44607014	      5.08551519	     -7.44683971	     13.17120774	     -7.54058433	      2.81965890	    -11.76144038	      9.16233725	     -8.47890505
      0.54566667	      0.14717204	     -0.28192705	     -2.31214457	     -0.79436675	      0.97833074	      0.29439114	     21.32997927	      1.51077098	      1.66918171	     -2.89790969	    -11.64551267	    -15.44702407	      8.36963157	    -21.06234427	      3.11879229	      4.90758241	     -8.29954986	     13.01109796	     -7.59996836	      2.96542385	    -11.67288791	      9.62984239	     -8.36872156
      0.54983333	      0.07876812	     -0.60442439	     -2.34028211	     -0.78841758	      0.97817354	      0.29521538	     21.49739525	      1.93107019	      1.80703034	     -3.79445509	    -11.98885338	    -16.07172378	      8.27347751	    -20.83317785	      2.78163827	      4.47991631	     -9.37064583	     13.06993079	     -7.11054358	      3.71203987	    -11.59637956	     10.00618682	     -8.23005716
      0.55400000	     -0.04952250	     -0.91090411	     -2.40763342	     -0.78243760	      0.97798514	      0.29607450	     21.74420986	      2.34706585	      1.96758712	     -4.74049029	    -12.09467285	    -16.45843941	      8.21931117	    -20.57201469	      2.48956634	      4.23411035	    -10.36733285	     12.77404092	     -7.19921939	      4.08487098	    -11.45090017	     10.35847108	     -8.09342220
